<?xml version="1.0" encoding="UTF-8"?>
<svg viewBox="0 0 434.63434 424.07019" xmlns="http://www.w3.org/2000/svg">
 <g transform="translate(-173.88 -143.04)" stroke="#000">
  <g transform="translate(20.711 -171.22)" fill="none">
   <g transform="translate(-145.86 -1.3696)">
    <path d="m686.53 537.88c-16.301 0.511-40.852 28.639-45.469 43.094-7.4501 19.815-19.441 49.407-4.7188 68.781 3.4218 3.7986 7.7403 5.3881 12.469 5.25 14.186-0.4144 32.187-16.486 41.625-35.938 11.344-23.38 20.035-57.684 8.5313-72.438 7.9622 16.19-0.2796 47.2-10.781 68.844-11.026 22.725-37.186 40.364-51.844 34.281 14.666 5.9293 40.755-11.714 51.75-34.375 11.97-24.671 21.02-61.495 6.4688-74.688-2.2736-2.0613-5.0126-2.9071-8.0313-2.8125z" stroke-linecap="round" stroke-linejoin="round"/>
    <path d="m610.43 692.32 3.1269 3.0363m83.323-207.61c-27.655-0.0842-64.442 30.445-82.312 66.594-22.203 44.912-38.959 111.98-11.969 136 3.1659 2.8171 6.8209 4.3384 10.812 4.875 27.106 23.466 88.878-42.396 99-73.5 15.409-28.483 30.255-99.799 13.062-118.53-25.388-27.661-76.971 8.6289-100.31 55.844-21.468 43.426-37.837 107.56-14.5 133.47-23.971-25.592-7.5682-90.215 14.031-133.91 21.797-44.091 68.246-78.676 94.969-60.531-0.2512-0.3186-0.4814-0.6136-0.75-0.9063-5.9502-6.483-13.565-9.3805-22.031-9.4063z"/>
   </g>
   <path d="m547.51 485.59c-77.011-47.148-167.57 179.21-97.161 198.22l4.0423-0.2054c2.9884 3.2978 6.588 5.0732 9.9481 7.6276"/>
   <path d="m439.57 678.35c-33.494-11.216-27.69-89.881-9.6591-124.55 26.694-51.328 75.73-95.406 111.82-73.163 2.3494 1.4218 4.54 3.2024 5.7819 5.0027"/>
  </g>
  <path d="m531.87 385.19c8.2788 22.453-7.6384 51.833-24.768 50.454" fill="none" stroke-width=".5"/>
  <path d="m522.47 401.24 7.3388 0.2293v11.008l-4.3574 7.1095-6.6508 6.1921-4.5868-2.064-0.4587-8.0268 3.6694-9.6322 5.0454-4.8161z" fill="none" stroke-width=".5"/>
  <path transform="matrix(.53174 .33469 -.39102 .95695 350.77 -214.79)" d="m643.06 432.35c0 1.8366-1.4888 3.3254-3.3254 3.3254s-3.3254-1.4888-3.3254-3.3254 1.4888-3.3254 3.3254-3.3254 3.3254 1.4888 3.3254 3.3254z" fill="none" stroke-linecap="round" stroke-linejoin="round" stroke-width=".6251"/>
  <path transform="matrix(-.9738 -.46522 -.45409 .99766 785.75 99.541)" d="m231.18 547.17c0 5.6167-2.732 10.17-6.102 10.17s-6.102-4.5533-6.102-10.17 2.732-10.17 6.102-10.17 6.102 4.5533 6.102 10.17z" fill="none" stroke-linecap="round" stroke-linejoin="round" stroke-width=".2299"/>
  <path transform="matrix(-.86119 -.41145 -.40158 .88235 731.01 150.1)" d="m231.18 547.17c0 5.6167-2.732 10.17-6.102 10.17s-6.102-4.5533-6.102-10.17 2.732-10.17 6.102-10.17 6.102 4.5533 6.102 10.17z" fill="none" stroke-linecap="round" stroke-linejoin="round" stroke-width=".2599"/>
  <path d="m312.16 538.73c-1.8966 4.1351-1.541 8.4549 0.8433 9.7232 2.4403 1.2982 5.9501-1.4693 7.9939-5.5336 2.832-5.6317 2.7965-10.696-0.5608-11.277-3.2506-0.5624-6.3798 2.9523-8.2764 7.0873z" fill="none" stroke-linecap="round" stroke-linejoin="round" stroke-width=".25"/>
  <path d="m297.43 554.81c1.3117-8.379 3.3965-16.951 6.2148-25.707l11.724-12.853c5.6583-2.4518 10.953-2.7229 16.243-2.9662 6.5404 2.4811 7.9734 13.195 6.7798 17.091 3.8627-3.548 23.708-10.373 33.052-19.21 2.2303 0.1535 4.9665-0.705 5.7911 2.2599 2.582-4.821 14.17-7.8409 25.336-10.945l-0.3977-1.4584c-13.974 2.2225-17.966 8.2383-33.675 4.9054-4.462-3.3144-14.317-4.9054-18.826-8.7501l14.318 5.3031 13.523-0.928c3.7505-0.8455 7.4202-1.7718 10.474-3.3144 3.322-0.3152 5.5225-0.1412 5.7008 1.9887-3.6564 2.1386-8.2942 2.8051-12.595 3.9773h-8.4849l-5.0379-0.6629-3.447-1.0606" fill="none"/>
  <path d="m335.76 516.4c0.5303-0.1326 19.489-13.125 19.489-13.125l17.102 5.0379 4.5076 2.6515" fill="none" stroke-width=".5"/>
  <path d="m334.19 513.98 13.115-19.907c9.643 1.6907 21.462 3.9196 31.383-1.5223 0.3824 0.2194 1.1348 0.0856 4.5669 0l3.0446 2.2249c-1.1963 0.7923-3.6882 1.8336-6.0893 3.8643-21.951 2.744-25.793-1.6722-32.906-4.5669" fill="none"/>
  <path d="m319.43 504.61 13.232-23.303 9.7194 4.6841c11.149 2.7519 22.637 2.0612 32.671-2.8104 1.8142 1.132 4.5697 2.264 4.6841 3.3959-1.5399 2.4101-3.184 4.2997-5.0354 5.1525-17.291 2.4087-24.784 0.4776-31.032-3.3959l-15.34 20.727m-8.8997-4.4498s-1.6293 3.3961-1.8639 3.8643c1.4639 3.9872 1.9801 5.0967 11.115 4.3327l0.2342-1.0539s-2.6284 0.2854-2.6933-0.2342c-0.2342-1.8736 0.4684-3.3959 0.4684-3.3959-3.1645-0.4266-5.6564-1.5258-7.2603-3.513z" fill="none"/>
  <path d="m325.3235,488.2147 5.5159-8.3439-1.8605-1.4707 .4253-2.5515 2.3389-.8505 9.9933,4.6777 23.6012.8505 4.8903-1.701 4.2525.8505-1.4884-4.6777-3.6146-1.701-9.5681,1.9136-9.5681,1.0631-10.4186-.8505-8.0797-3.8272-1.2757-.8505-5.1438,17.469z" fill="none"/>
  <path d="m361.2977,461.8155c2.9163,2.0684 5.775,4.1655 9.2967,5.9311m-36.7251.8728c-.0108-1.7973 2.3265-3.2032 4.2525-4.6777 3.6616-3.0309 15.2865-1.5113 23.176-2.1262 2.6455-.3194 5.5862-1.9691 8.9302,2.5515l.4252,3.402-5.9535.6379-1.701.8505-19.774.2126-9.3554-.8505z" fill="none"/>
  <path d="m238.01 447.37c-6.0976-5.2576-12.344-10.317-19.446-14.235l-1.271 1.6523m230.13 63.303-4.9416-0.1497c-1.1045 1.6456-14.417 9.3018-25.606 11.231-2.123 3.544-4.4173 7.088-9.2842 10.632-7.5188-1.6259-14.226-3.1446-22.731-1.4667-12.904 5.7824-23.157 16.097-28.932 18.987-7.2483 3.0841-16.548 7.411-22.612 11.68-8.8118 7.3734-16.499 18.651-25.756 17.52-17.58-6.9712-36.55-18.355-46.122-27.403-2.8729-15.389 3.1203-22.798 6.6991-32.381l10.646-44.39-19.669-13.353-8.481-9.5636-2.3458 3.248 1.2244 3.6089c-1.2502 1.7174-2.5004 3.4445-3.7506 5.4937l-7.9396-4.0501-4.3307 6.3156c0.6945 1.6951 2.5903 3.7906 1.9849 5.0525l-4.5111-1.0827-6.3156 9.0223-5.4134-3.248-5.2329 7.9396c-6.5399-1.9685-8.2465-4.4203-10.105-6.857l5.0525-6.857-5.5938-4.6916 7.0374-9.3832-0.019-3.3057 2.9061 0.2382 4.0141-6.09c-0.6707-1.3093-3.7677-3.951-5.8185-6.1803l4.3307-5.7743 3.4285 1.624 2.3458-4.3307-4.3307-7.9396 0.1804-5.7743 3.4285-2.5262 0.2483 5.9901c3.8815 5.9755 7.2978 12.259 13.472 16.269l1.7794-0.2542v-2.7962l3.813 0.7626-3.6859-5.2111-1.271-5.3381-0.8897-5.2111-2.542-3.3046 0.1271-1.3981 5.4653 5.3381 5.7195 3.1775 3.5588 1.271-0.5084-10.549c-7.2516-4.4189-13.215-8.7959-16.904-14.616l-11.058-6.7362-3.6859-3.3046 1.5252 14.108 3.4317 6.8633 1.404 4.9404c4.2912-0.9822-2.7821-13.548-3.946-22.099l11.947 7.1175c3.3251 7.0546 10.162 10.607 15.887 14.744" fill="none"/>
  <path d="m217.55 405.56-17.286-9.2782-7.8801-4.9569-4.8298-4.0672-2.6691-6.2278 8.5156 5.8465 8.8969 3.9401 8.6427 4.7027 5.3381 1.9065 3.0504 5.2111-0.1271 1.1439-1.6523 1.7794z" fill="none"/>
  <path d="m236.36 410.51c4.2651 3.0362 9.8229 5.8139 12.583 9.1511 0.6835 2.8442 2.7397 7.061 1.9065 8.3885l-3.0504-0.5084-6.2278-5.084-3.4317-3.9401-1.0168-1.5252-0.7626-6.482z" fill="none"/>
  <path d="m548.72 303.28-15.821-1.536-1.536-7.9873 4.1473-15.514 2.6112-10.445 1.3824-5.9905-0.1536-17.357 2.1504-10.598 6.7585-13.517 3.3792-14.592-0.1536-11.059-0.9216-5.0689-5.8369-5.3761-1.9968-0.768-74.19-31.796-21.658-8.1409-59.29 25.959-8.9089-3.9937-6.4513 2.9184-15.053-5.6833-6.2977 0.3072-7.0657 3.3792-3.3792 3.6865-5.3761-0.4608-4.3009 4.3009-19.968-7.2193h-19.815l-16.128 4.1473-3.9937 1.9968-20.276 11.059-7.8337 3.072-5.3761 0.9216-28.57 40.09-11.999 20.816-7.5204 18.137-8.8475 41.583-5.7332 27.923-0.3185 20.385 4.1406 14.333 6.6887 18.792 1.911 5.0962 9.2368 7.9627 14.333 9.5553 10.192 6.0517" fill="none"/>
  <path d="m536.07 198.13c-7.2673-1.0802-15.683 19.23-11.969 26.781 15.704 12.041 23.253-25.104 11.969-26.781z" fill="none" stroke-linecap="round" stroke-linejoin="round"/>
  <path d="m509.83 207.97-14.861 12.219-5.2839 8.5864 1.321 5.2839c2.7789 0.7411 5.6041 1.6211 9.2469 4.9537 5.0493-10.302 7.0434-3.2917 9.5772 0.6605l-3.3025 3.3025 4.9537 6.2747 4.9537 5.9444 6.2747 11.559 5.2839 11.559 2.3117-3.6327 1.6512-32.034c-5.9772 3.333-11.741 4.3128-16.843-1.9815-2.6129-8.8385-3.4033-18.816 0.9907-32.034 0.3992-5.8459 5.28-12.439 10.898-19.154l-27.41 16.843c-8.7271 5.521-17.197 12.395-28.071 11.228-5.5203-2.3587-9.0423-5.7165-12.88-8.9167l-6.9352 4.2932c-1.9981 3.6161-4.0709 7.1575-6.9352 9.9074l-0.9907 7.5957 8.2562 8.9167c15.348 9.3049 15.189 34.412 21.796 40.29l7.2654-8.5864c4.9035-3.4714 9.3955-4.2683 12.549 3.6327l2.642 14.531 4.9537-1.9815 7.5957 2.642 5.9444 4.9537 4.9537 2.9722 4.2932 3.6327 2.642 2.9722-2.9722-0.3302-1.321-1.321-1.6512 4.6235-7.2654-5.6142 2.642-4.2932-5.6142-2.642-2.9722 3.3025-5.6142-2.642 0.9907-3.963-5.6142 0.9907 1.9815 26.75" fill="none"/>
  <path d="m330.51 356.92c-1.1598 1.0851-2.3398 2.0896-2.642 6.6049l27.741 13.21c6.0049 0.2043 9.2881-1.9729 8.2562-7.9259l-33.355-11.889z" fill="none"/>
  <path d="m334.14 344.04 20.806 11.889c6.4803 1.7883 18.73 4.5553 17.173-5.9444l-34.346-14.861-3.6327 8.9167z" fill="none"/>
  <path d="m342.49 325.18 20.806 11.889c7.471 2.4488 17.409 5.2158 15.852-5.284l-33.025-15.522-3.6327 8.9167z" fill="none"/>
  <path d="m355.93 293.18-7.9259 10.898 48.546 27.741c8.6125-4.3948 11.708-9.3703 3.6327-15.522l-11.559-7.5957-32.694-15.522z" fill="none"/>
  <path d="m344.67 312.17-6.9352 12.219 47.556 24.108c30.747-14.525-26.58-24.245-40.62-36.327z" fill="none"/>
  <path d="m334.62 332.81-5.6142 11.664c12.763 6.7007 30.993 14.495 47.886 22.022 30.747-13.864-28.232-22.153-42.272-33.685z" fill="none"/>
  <path d="m326.95 352.62-5.2839 11.664c12.763 6.7007 27.03 12.513 43.923 20.04 40.985-12.544-24.599-20.171-38.639-31.704z" fill="none"/>
  <path d="m360.56 286.57 25.429 14.531 14.201 9.2469 3.963 4.6235c11.612 1.503 8.8512-6.6853 10.238-11.889l-10.238-7.9259-36.657-19.485-7.2654 8.9167 0.3302 1.9815z" fill="none"/>
  <path d="m374.1 269.81 18.824 10.238 24.768 18.164c15.794-4.1798 6.0994-11.875-2.9722-19.485l-33.685-18.494-7.2654 7.5957 0.3302 1.9815z" fill="none"/>
  <path d="m386.32 253.55 8.2562-6.2747 19.154 9.2469 18.164 13.54 5.6142 7.5957 0.6605 5.2839-4.6235 3.6327-6.9352-1.9815-6.9352-6.9352-7.2654-6.9352-6.6049-4.6235-9.5772-6.2747-7.2654-2.9722-2.642-3.3025z" fill="none"/>
  <path d="m399.86 241.66 6.9352-5.6142c13.745 6.5881 27.887 10.792 39.96 27.41 3.3664 2.4449 2.8812 6.8156 0.9907 11.889l-7.5957-0.6605-7.9259-9.2469c-8.7334-9.2957-18.399-17.97-32.364-23.778z" fill="none"/>
  <path d="m353.62 305.4 5.9444-6.9352 28.401 12.88 2.3117 8.5864c-2.1486 1.2639-4.5694 2.2557-7.5957 2.642l-29.062-17.173z" fill="none"/>
  <path d="m365.18 287.23 4.6235-4.6235 12.219 4.9537 9.5772 5.9444 7.2654 4.6235v6.2747l-3.3025 2.3117-24.108-15.191-6.2747-4.2932z" fill="none"/>
  <path d="m378.72 270.39 4.6235-3.963 14.861 8.5864 9.2469 6.2747 2.642 4.9537-1.6512 4.6235-23.448-16.182-6.2747-4.2932z" fill="none"/>
  <path d="m391.6 256.52 4.2932-2.3117 15.522 8.2562 9.5772 7.2654 1.6512 5.2839-1.6512 2.642-16.512-13.54-5.6142-3.6327-7.2654-3.963z" fill="none"/>
  <path d="m408.94 245.26 11.502 4.8664 6.5253 4.3134 4.3134 3.871 2.765 3.9816-0.2212 3.7604-3.2074-3.4286-2.9862-3.4286-5.7512-5.0876-5.4193-3.7604-3.0968-2.212-4.424-2.8756z" fill="none"/>
  <path d="m211.97 455.73 5.5742-7.3261 7.3261 4.3001 3.663 3.1853 1.5926 2.8667" fill="none"/>
  <path d="m217.39 448.4-3.026-2.7075-4.1408-1.7519" fill="none"/>
  <path d="m226.46 439.01-6.3705 8.2817 10.511 6.5298 2.3889 1.1148 1.7519 3.1852" fill="none"/>
  <path d="m219.62 447.61-9.3965-6.2112" fill="none"/>
  <path d="m221.69 421.33 7.3261 7.9631 3.663 3.1853 4.7779 0.3185 3.663-3.1852 3.8223 4.3001 5.0964 5.0964 7.1668 4.1408 3.663 2.5482 2.7075 3.8223-2.7075-1.1148-3.663-3.1852-2.8667-2.5482" fill="none"/>
  <path d="m241.59 425.47 6.2112 3.9816 5.7335 3.3445 2.3889 5.2557 1.2741 1.9111-3.8223-1.4334-4.1408-2.8667-3.663-3.1852-3.9816-7.0076z" fill="none"/>
  <path d="m200.19 367.98c-0.0556 2.3595-0.0152 4.8309-2.5482 4.3001l-4.4593-2.8667c-8.6265-11.519 2.4846-15.568 7.0076-1.4334z" fill="none"/>
  <path d="m466.5668,329.5057 10.5679,6.2747 .9907-6.6049-1.6512-16.8426-6.2747-.3302-2.9722-3.963-7.9259,5.2839 1.6512,12.2191-3.963.6605-2.642-4.9537-4.9537,2.9722-3.6327,6.2747v2.9722l.6605,7.5957-1.6512,1.321-4.2932-4.2932-4.2932,3.3025-2.3117,4.2932-1.9815,3.963 1.321,6.6049 .9907,2.642-2.3117,2.9722-3.2199-2.3668-4.8161,1.8347-2.5227,5.9628-1.376,4.1281 .4587,3.8988 3.4401,1.8347-.688,3.6694-5.0454.4587-2.5227.688-2.9814,5.2748-.688,1.376v5.2748l3.2107.688-.688,4.5868 27.2912-3.2107 12.3843-25.4565 8.7149-12.8429 9.6322-13.0723 5.7335-6.4215-11.6962-6.8802 .055-1.7888z" fill="none"/>
  <path d="m428.9 365.24-2.7521 2.9814-0.2293 2.064 13.302 5.9628 5.9628 2.9814 3.6694-1.1467-0.688-2.9814-19.264-9.8615z" fill="none"/>
  <path d="m436.7 354.92 16.283 8.0268h4.5868l1.8347-1.8347-5.7335-4.8161-13.99-5.9628-5.2748-0.4587v2.2934l2.2934 2.7521z" fill="none"/>
  <path d="m460.09 330.15-5.9628 6.4215 6.8802 4.5868 3.8988 1.8347 3.8987 2.9814-2.2934 3.6694-3.8988-2.9814-8.2562-4.1281-5.2748-3.8987-2.2934-2.064v-3.4401l4.5868 3.2107 4.1281-4.3574 2.064-1.6054 0.2293-2.5227 2.2934 2.2934z" fill="none"/>
  <path d="m413.5347,389.5465 5.7335.2293 4.1281-4.1281 1.6054-3.8988 2.7521-4.8161-.688-3.8987-1.8347,3.4401-2.064,6.1921-1.8347,2.5227-2.7521,2.064-1.376,1.376-3.6694.9174z" fill="none"/>
  <path d="m477.06 294.14 3.6694 1.1467 1.6054 19.035-0.2293 9.4029 2.064 3.2107 2.5227-3.2107 5.5041-3.2107 3.2107 0.4587-2.064-29.585-3.8987-0.9174-0.9174-1.6054-11.467 5.2748z" fill="none"/>
  <path d="m488.07 294.37 1.1467 22.475 4.8161 1.8347" fill="none"/>
  <path d="m483.94 274.19-4.1281 3.4401-1.376 4.3574 1.6054 4.3574 3.4401 0.688 2.2934-2.5227 2.064-6.6508-0.688-3.2107-3.2107-0.4587z" fill="none"/>
  <path d="m261.71 380.14 7.3388-9.1735 6.1921-4.3574 2.5227-2.5227 2.7521-4.5868" fill="none"/>
  <path d="m459.81 220.87c-1.5325 4.7637-3.2088 9.2875-6.4654 11.178" fill="none" stroke-width=".25"/>
  <path d="m279.83 362.94c30.435 17.866 60.285 36.322 97.01 36.006 0 0 18.347-0.688 19.264-0.688s3.6694-1.376 3.6694-1.376l1.8347-2.2934 7.7975-22.934c11.223-25.492 26.231-48.26 46.785-66.967l11.926-8.7149c-2.4688-22.098-5.5736-43.854-23.622-57.564-19.114-11.616-40.399-20.52-61.921-29.126" fill="none"/>
  <path d="m351.64 209.96 10.898-7.5957 4.9537-12.549 5.2839-8.9167 10.238-6.2747h5.6142l2.9722 2.3117 6.6049 2.642 5.6142 2.3117 2.9722-0.3302 41.611-18.494 20.145-9.5772" fill="none"/>
  <path d="m376.74 213.26 6.2747-3.963 2.3117-9.2469 4.2932-9.9074" fill="none"/>
  <path d="m235.39 192.12 0.3302 3.3025 17.833 6.6049 11.889 4.6235 9.5772 4.2932 1.6512-3.963 1.6512-1.9815-10.568-6.2747-13.87-5.6142-8.2562-3.3025-2.642-1.6512" fill="none"/>
  <path d="m213.93 228.12 15.191 7.9259 12.549 3.963 6.2747 3.963 1.321-1.321v-2.9722l1.6512-2.642-26.09-12.88-5.6142-1.9815-5.2839 5.9444z" fill="none"/>
  <path d="m256.86 404.47s7.5957 47.225 21.466 55.482" fill="none"/>
  <path d="m328.52 469.2c-3.9895-13.222-4.6802-30.403-4.2932-48.876" fill="none"/>
  <path d="m251.58 386.64c1.9815 0.9907 41.281 24.108 41.281 24.108l0.3302 5.6142 4.9537 14.861" fill="none"/>
  <path d="m314.98 417.02 0.9907-7.9259 12.88-12.549 7.5957 3.963 12.549 3.6327 21.136 1.6512 13.21-0.3302h5.9444l-4.9537 3.3025-4.9537 6.2747-0.3302 4.9537" fill="none"/>
  <path d="m404.81 508.5 11.559-3.963 6.6049-2.3117 3.963-2.9722 9.9074-18.164" fill="none"/>
  <path d="m332.82 465.57-2.642-14.531 0.3302-18.824 0.3302-1.9815 19.154 4.6235 14.861 1.6512 13.87-1.6512h5.6142l-6.6049-12.88-6.2747 0.3302-0.9907-1.6512-7.9259 3.3025" fill="none"/>
  <path d="m329.18 422.64s11.889-2.642 8.9167-15.522" fill="none"/>
  <path d="m329.18 423.63c-2.426 4.0434 63.052 11.27 5.6142-19.815" fill="none"/>
  <path d="m329.18 405.46-3.6327 1.321-3.6327 6.2747v4.6235l3.963 0.3302 3.6327-5.2839 0.9907-4.6235-1.321-2.642z" fill="#825335"/>
  <path d="m245.63 393.24c-0.3302-1.321-3.6327-4.9537-3.6327-4.9537l-0.6605-10.898 4.9537-8.9167 6.9352-10.568 5.9444-4.6235 1.6512-3.963 2.9722-4.9537 1.9815-5.9444" fill="none"/>
  <path d="m314.75 194.59 14.107 0.5012 3.3025-5.9444c0.279-2.2265 0.6042-4.5453 0.0589-5.1232h-6.2112l-3.663 1.7519-1.2741 3.5038-3.1852 0.1593-3.1345 5.1514h-3e-5zm-47.319 54.001c-7.7516 17.861-9.2621 16.998-11.559 18.494l-1.6512 9.5772-9.5772 12.88-5.9444 16.182-0.9907 7.2654-7.9259 22.787s-13.21 12.549-14.531 13.21l0.6605-14.861c3.8285-17.641 13.4-71.599 59.775-116.91l5.2839-10.238c2.7521 2.2727 5.5041-0.7651 8.2562-3.6327l25.026-16.028 1.242 0.6855-13.537 11.785-7.0076 5.7335-7.1668 4.6186 0.1223-0.1904-12.549 10.898c-7.6263 11.001-23.655 25.899-17.173 29.062l2.3774 0.5326-2.7102 7.7433-3.2909 3.8716-1.7422 6.1947-3.2909 4.646-2.1294 7.9369-3.2909 2.9037-2.7102 10.26-3.8716 5.2267-0.3872 6.0011-3.4845 4.2588-2.1294 8.9048-3.2909 3.6781-0.7743 7.5497-2.5166 2.5166-2.5166 0.7743 3.4845-9.292-5.8075-0.5807" fill="none"/>
  <path d="m205.08 293.2-5.866 32.13-12.864-4.5143 5.866-33.063 12.864 5.4468z" fill="none" stroke-linecap="round" stroke-linejoin="round" stroke-width=".25"/>
  <path d="m236.18 322.38 8.6415 6.6902 7.8053 2.2301 3.6239-10.035v-2.5088l-9.199-5.0177-6.6902-3.9026-4.1814 12.544z" fill="none"/>
  <path d="m242.87 322.93 9.4778 5.8539 3.9026-8.6415-9.4778-5.2964-1.115-0.5575-2.7876 8.6415z" fill="none"/>
  <path d="m242.04 301.19 8.6415 6.4115 7.8053 2.7876 1.6726-0.5575 3.9026-9.199-0.8363-1.6726-8.3628-4.1814-5.2964-2.7876-3.3451-1.6726-4.1814 10.872z" fill="none"/>
  <path d="m259.6 308.72-10.314-5.2964 3.3451-7.8053 1.9513-0.2788 9.199 4.7389-4.1814 8.6415z" fill="none"/>
  <path d="m251.24 283.35 12.823 5.8539 4.1814 1.6726 3.0663-6.6902 2.2301-3.3451-15.332-8.6415-6.969 11.15z" fill="none"/>
  <path d="m261.27 276.66-3.9026 8.3628 10.035 4.1814 5.2964-8.084c-3.795-1.5457-6.962-5.603-11.429-4.4601z" fill="none"/>
  <path d="m272.56 258.97-6.3882 8.1305 12.002 4.2588 4.646-8.3241-7.1626-2.9037-3.0973-1.1615z" fill="none"/>
  <path d="m266.75 254.9 18.003 5.2267-6.5818 12.196-18.003-7.1626 6.5818-10.26z" fill="none"/>
  <path d="m270.24 246.77 8.324-9.4855 18.778 6.0011-8.5176 11.421-15.68-6.7754-2.9037-1.1615z" fill="none"/>
  <path d="m279.14 248.9 4.2588-5.2267h5.0332l5.8075 2.9037-5.4203 6.7754-9.6791-4.4524z" fill="none"/>
  <path d="m292.31 222.57c0.7743 0.1936 17.422 5.8075 17.422 5.8075l-7.5497 9.6791-19.358-5.8075 5.2267-4.8396 4.2588-4.8396z" fill="none"/>
  <path d="m291.73 233.41 9.8727 4.0652 4.8396-6.0011-6.7754-1.7422h-4.2588l-3.6781 3.6781z" fill="none"/>
  <path d="m294.82 218.31 8.1305-7.1626 5.8075-2.323 7.5497 2.5166 8.1305 3.0973-8.7112 8.7112-9.6791-3.4845-5.8075-1.5487-5.4203 0.1936z" fill="none"/>
  <path d="m310.31 216.96c-0.7743 0.1936-2.9037 2.1294-2.9037 2.1294l8.3241 3.6781 3.6781-3.8716-5.6139-1.5487-3.4845-0.3872z" fill="none"/>
  <path d="m306.63 205.54c1.5487 0 11.808 0.7743 11.808 0.7743l10.26 4.4524 10.841-6.1946-8.3241-3.2909h-11.034l-8.5176 1.3551-3.0973-0.9679-3.6781 2.9037 1.7422 0.9679z" fill="none"/>
  <path d="m323.67 207.86 9.8727-0.3872-5.0332 2.9037-4.8396-2.5166z" fill="none"/>
  <path d="m266.753,244.6414c.7743-.5807 7.9369-8.7112 7.9369-8.7112l6.969-8.5176 8.5176-8.9048 4.0652-6.1947 4.2588-2.5166 1.9358-3.2909 1.9358-2.7102 2.9037-.5807 1.7423-2.7102 4.2588-4.4524 3.0973-.7743" fill="none"/>
  <path d="m323.47 183.86 8.5176-6.5818 3.2909-5.6139h2.7102l-2.323 6.7754-0.5807 4.646-3.2909-0.5807-2.1294-1.7422-6.1947 3.0973z" fill="none"/>
  <path d="m222.01 421.57 7.9316 7.9316 3.0216 2.8327 4.7212 0.1888 3.3992-3.3992 4.3435 5.0989 5.8543 5.0989 3.7769 2.2662" fill="none"/>
  <path d="m213.52 470.48-7.7427-6.0431" fill="none"/>
  <path d="m214.84 468.97-7.9316-6.232" fill="none"/>
  <path d="m216.16 466.89-7.7427-5.8543" fill="none"/>
  <path d="m217.67 464.82-7.365-5.4766" fill="none"/>
  <path d="m207.47 455.94 7.1762 3.7769 5.0989 4.1546" fill="none"/>
  <path d="m257.52 323.89 0.3302 9.5772 24.438 11.559 15.852 8.5864 15.191 7.5957 5.2839-0.9907 3.3025-5.9444 7.9259-22.787 9.5772-19.815 10.898-17.503 13.21-19.154 14.201-16.512 14.861-14.531 6.2747-5.9444-0.6605-3.3025-2.3117-1.321-14.861-7.2654-12.88-5.6142-8.5864-4.9537-7.2654-4.2932-4.6235-1.9815-7.9259-1.321-5.6142 0.9907-5.9444 5.6142-14.861 14.201-13.54 16.182-14.201 20.475-14.861 26.09-8.5864 19.485-4.6235 12.88z" fill="none"/>
  <path d="m378.47 419.08 6.7559 7.7953 3.1181 8.315 8.315-3.1181 0.2599-3.8976s1.8189-0.2598 2.0787-1.2992 1.5591-25.205 1.5591-25.205l-7.5354 3.6378-6.7559 12.213-0.5197 3.1181-7.2756-1.5591z" fill="none"/>
  <path d="m403.16 407.39-2.3386 18.449 4.4173 2.3386 16.37-2.0787 6.2362-1.5591 1.8189-3.8976-0.2598-3.3779 1.2992-6.2362 1.5591-4.1575-4.937-2.0787-9.6142 1.5591-9.3543 2.3386-5.1969-1.2992z" fill="none"/>
  <path d="m391.99 412.59 4.937 2.0787-0.2599 3.6378-3.1181 2.8583-5.1969 2.3386h-1.0394l1.5591-4.937 3.1181-5.9764z" fill="none"/>
  <path d="m437.46 409.47-2.5984 1.2992 0.5197 4.6772 3.3779 1.8189 1.8189-7.2756 0.5197-1.2992-3.6378 0.7795z" fill="none"/>
  <path d="m406.28 433.89 0.2598 7.0157 7.5354-4.6772 1.0394-4.4173-8.8346 2.0787z" fill="none"/>
  <path d="m417.45 431.04 13.252-3.1181 5.9764-1.2992-0.7795 9.3543-3.6378 3.3779-9.6142-3.8976-4.1575-2.5984-1.0394-1.8189z" fill="none"/>
  <path d="m417.971,437.5316 9.3543,3.8976 4.1575.7795 3.8976-.2598 .7795,7.0157-3.8976.7795-7.5354-3.6378-3.8976-2.0787 2.5984-3.378-5.4567-3.1181z" fill="none"/>
  <path d="m416.9316,437.2718-4.937,6.4961-3.6378,5.7165 .5197,1.5591 4.4173-5.1969 7.2756,3.6378 .5197,3.1181-3.6378,4.1575-1.8189,3.8976v1.5591l4.6772-6.4961 2.3386-.7795 6.2362,4.1575-.5197,3.1181-3.3779,5.9764-.5197,4.937 3.6378,2.0787 2.5984-1.0394 2.8583-5.4567 1.5591-2.5984-2.3386-4.4173-2.5984.5197-3.1181,4.6772v-1.5591l2.3386-6.7559 1.5591-.7795 5.9764,3.1181v8.315l-1.0394,2.5984-.2598,1.8189 .7795,2.8583 2.8583.5197" fill="none"/>
  <path transform="translate(176.59 141)" d="m38.503 208.04-3.3138 12.94v8.3634l2.367 6.9432" fill="none"/>
  <path transform="translate(176.59 141)" d="m27.089,94.6621c-1.1835,0-6.1805-.263-6.1805-.263l-1.4465,2.63 3.5505,3.419v1.841" fill="none"/>
  <path transform="translate(176.59 141)" d="m32.218 86.378h-3.0245l-1.7095 1.9725 2.367 2.367" fill="none"/>
  <path transform="translate(176.59 141)" d="m285.9 83.265c-1.5325 4.7637-3.2088 9.2875-6.4654 11.178" fill="none" stroke-width=".25"/>
  <path d="m461.2 222.34c-1.5325 4.7637-3.2088 9.2875-6.4654 11.178" fill="none" stroke-width=".25"/>
  <path transform="translate(176.59 141)" d="m278.13 80.168-3.5994 4.2538-0.9816 3.5994 11.78 13.416 4.581 5.8899 4.9082 1.9633 3.9266-1.9633 1.3089-5.5626-2.2905-6.5443-4.9082-5.8899-5.5626-5.5626-3.5994-3.5994-2.6177-1.9633-2.9449 1.9633z" fill="none"/>
  <path d="m458.28 219.44c-1.5325 4.7637-3.2088 9.2875-6.4654 11.178" fill="none" stroke-width=".25"/>
 </g>
</svg>
