<?xml version="1.0" encoding="UTF-8"?>
<svg width="172.2" height="280.33" enable-background="new 0 0 172.195 280.329" viewBox="0 0 172.195 280.329" xmlns="http://www.w3.org/2000/svg">
 <path d="m171.35 50.068c0-27.183-38.168-49.219-85.249-49.219s-85.249 22.036-85.249 49.219" fill="none" stroke="#000" stroke-linecap="round" stroke-width="1.698"/>
 <path d="m.849,50.068c0,27.182 38.168,49.218 85.249,49.218s85.249-22.036 85.249-49.218" fill="none" stroke="#000" stroke-linecap="round" stroke-width=".7058"/>
 <path d="m1.698,50.068c0,13.455 9.096,25.84 24.369,34.658l-.499.287c-15.58-8.994-25.568-21.219-25.568-34.945h1.698"/>
 <path d="m146.13,84.727c16.577-9.57 24.369-22.115 24.369-34.658h1.698c0,12.647-8.854,25.296-25.568,34.945l-.5-.287"/>
 <path d="m165.39 50.068c0-25.283-35.502-45.78-79.293-45.78s-79.291 20.497-79.291 45.78" fill="none" stroke="#000" stroke-linecap="round" stroke-width=".7058"/>
 <path d="m6.806 50.068c0 25.282 35.501 45.779 79.292 45.779s79.293-20.497 79.293-45.779" fill="none" stroke="#000" stroke-linecap="round" stroke-width="1.698"/>
 <path d="m30.279,17.841c-15.414,8.899-22.624,20.563-22.625,32.227h-1.697c0-11.77 8.272-23.537 23.824-32.516l.498.289"/>
 <path d="m164.54,50.068c0-12.507-8.43-24.031-22.625-32.228l.499-.288c14.503,8.373 23.824,19.738 23.824,32.516h-1.7"/>
 <path d="m157 46.447c0-22.609-31.746-40.938-70.905-40.938s-70.902 18.329-70.902 40.938" fill="none" stroke="#000" stroke-linecap="round" stroke-width="1.698"/>
 <path d="m15.193 46.447c0 22.607 31.746 40.937 70.905 40.937s70.905-18.329 70.905-40.937" fill="none" stroke="#000" stroke-linecap="round" stroke-width=".7058"/>
 <path d="m16.042,46.447c0,11.168 7.491,21.482 20.168,28.803l-.5.287c-12.984-7.496-21.367-17.65-21.367-29.09h1.699"/>
 <path d="m135.98,75.25c13.776-7.954 20.168-18.379 20.169-28.803h1.697c0,10.528-7.453,21.057-21.366,29.09l-.5-.287"/>
 <path d="m146.74 46.447c0-19.336-27.149-35.01-60.639-35.01s-60.639 15.674-60.639 35.01" fill="none" stroke="#000" stroke-linecap="round" stroke-width=".7058"/>
 <path d="m25.459 46.447c0 19.334 27.149 35.01 60.639 35.01s60.639-15.676 60.639-35.01" fill="none" stroke="#000" stroke-linecap="round" stroke-width="1.698"/>
 <path d="m43.469,21.835c-11.771,6.796-17.161,15.704-17.161,24.612h-1.698c0-9.013 6.451-18.024 18.36-24.9l.499.288"/>
 <path d="m145.89,46.447c0-9.533-6.342-18.365-17.161-24.612l.499-.288c11.127,6.424 18.359,15.097 18.359,24.9h-1.7"/>
 <path d="m138.3 48.994c0-16.644-23.37-30.137-52.198-30.137s-52.198 13.493-52.198 30.137 23.366 30.137 52.194 30.137 52.202-13.493 52.202-30.137" fill="none" stroke="#000" stroke-linecap="round" stroke-width="1.698"/>
 <path d="m106.5 46.447c0-6.506-9.134-11.778-20.4-11.778s-20.4 5.272-20.4 11.778" fill="none" stroke="#000" stroke-linecap="round" stroke-width=".7058"/>
 <path d="m65.698 46.447c0 6.504 9.133 11.777 20.4 11.777s20.4-5.273 20.4-11.777" fill="none" stroke="#000" stroke-linecap="round" stroke-width="1.698"/>
 <path d="m71.922,38.263c-3.915,2.26-5.375,5.222-5.376,8.185h-1.698c0-3.066 2.522-6.133 6.575-8.473l.499.288"/>
 <path d="m105.65,46.447c0-3.117-1.838-6.143-5.376-8.185l.499-.288c3.846,2.22 6.574,5.084 6.574,8.473h-1.69"/>
 <path d="m113.57,69.254c0-2.495-2.86-4.518-6.389-4.518s-6.389,2.022-6.389,4.518 2.86,4.518 6.389,4.518 6.39-2.023 6.39-4.518m-42.112-42.64c-.271-1.535-3.435-2.26-7.067-1.62s-6.357,2.404-6.087,3.939c.271,1.535 3.435,2.261 7.067,1.62s6.358-2.404 6.087-3.939m-.334,42.775c0-2.438-2.794-4.414-6.242-4.415s-6.243,1.976-6.243,4.413 2.794,4.414 6.242,4.415 6.242-1.976 6.243-4.413m-33.477-19.844c.176,2.005 3.132,3.383 6.604,3.078 3.471-.304 6.142-2.176 5.966-4.18-.175-2.005-3.132-3.383-6.603-3.078-3.471.304-6.142,2.176-5.967,4.18m-36.798,7.958c-.025,27.183 38.123,49.253 85.204,49.296s85.269-21.959 85.293-49.141m0-.005v-7.586m-170.5,7.586v-7.586m.942,15.809v163.94m168.4-164.3v164.63" fill="none" stroke="#000" stroke-linecap="round" stroke-width="1.698"/>
 <path d="m15.193 48.994c0 22.608 31.746 40.938 70.905 40.938s70.905-18.329 70.905-40.938" fill="none" stroke="#000" stroke-linecap="round" stroke-width=".7058"/>
 <path d="m157 48.994v-2.547m-141.81 2.547v-2.547" fill="none" stroke="#000" stroke-linecap="round" stroke-width="1.698"/>
 <path d="m130.77,43.718c-2.073-5.851-7.36-10.849-14.479-14.45m-15.7-5.233c-9.805-1.897-19.942-1.763-28.905-.015m-15.834,5.277c-7.741,3.962-12.594,9.104-14.438,14.465m0,10.465c2.057,5.854 7.33,10.857 14.438,14.465m15.831,5.276c9.811,1.888 19.947,1.743 28.905-.015m15.69-5.23c7.754-3.955 12.623-9.094 14.482-14.452" fill="none" stroke="#000" stroke-linecap="round" stroke-width=".3402"/>
 <path d="m106.16 48.593c-1.813-5.649-10.331-9.604-20.059-9.631-9.952 0-18.24 4.114-20.059 9.631" fill="none" stroke="#000" stroke-linecap="round" stroke-width=".7058"/>
 <path d="m105.1 50.739c-3.132-4.618-10.756-7.452-18.997-7.485-8.59 0-15.941 3.066-18.997 7.485" fill="none" stroke="#000" stroke-linecap="round" stroke-width="1.698"/>
 <path d="m106.41,47.555c-.996-6.088-9.85-10.654-20.31-10.671-10.591,0-19.297,4.66-20.31,10.671m39.91,2.145c-2.559-5.138-10.647-8.491-19.606-8.523-9.258,0-17.076,3.562-19.605,8.523m98.811,2.503c-.892-10.986-8.42-20.886-20.125-28.391m-118.16.001c-12.705,8.195-19.358,18.301-20.125,28.39" fill="none" stroke="#000" stroke-linecap="round" stroke-width=".7058"/>
 <path d="m133.23,49.545c.176-2.004-2.495-3.876-5.967-4.18s-6.427,1.073-6.603,3.078 2.495,3.876 5.967,4.18 6.43-1.073 6.6-3.078m-33.15-22.931c-.271,1.535 2.454,3.299 6.086,3.939s6.796-.085 7.067-1.62-2.455-3.299-6.087-3.939-6.79.085-7.07,1.62" fill="none" stroke="#000" stroke-linecap="round" stroke-width="1.698"/>
 <path d="m2.223 202.63c0 26.746 37.555 48.43 83.88 48.43s83.879-21.684 83.879-48.43" fill="none" stroke="#000" stroke-linecap="round" stroke-width=".3402"/>
 <path d="m170.19 230.9-5.763 17.564l-15.77 14.129-24.771 11.328-37.917 5.563m-84.016-48.58 5.555 17.564l15.771 14.129 24.77 11.328 37.917 5.563" fill="none" stroke="#000" stroke-linecap="round" stroke-width="1.698"/>
 <path d="m88.474,276.17v-19.609m33.206,13.83v-19.369m-33.206,5.54c7.459-5.775 23.339-7.338 33.204-5.533m-38.214,25.14v-19.609m-33.204,13.83v-19.369m33.204,5.54c-7.459-5.775-23.339-7.338-33.204-5.533m74.998,18.58v-19.254m21.1,9.41v-18.947m-21.1,9.53c6.555-6.043 15.26-10.447 21.098-9.525m-99.679,28.79v-19.254m-21.098,9.41v-19.25m21.098,9.83c-6.555-6.043-15.26-10.447-21.098-9.525m123.69,17.6v-19.07m14.42,6.1v-19.168c-4.062.127-13.027,10.85-14.412,13.066m16.02,3v-18.443c1.345-4.705 3.328-12.391 4.743-15.078m-147.37,49.59v-19.07m-14.413,6.1v-19.168c4.062.127 13.027,10.85 14.412,13.066m-16.025,3v-18.443c-1.345-4.705-3.328-12.391-4.742-15.078" fill="none" stroke="#000" stroke-linecap="round" stroke-width=".3402"/>
 <path d="m146.71 47.551c-1.041-18.935-27.939-33.879-60.608-33.898-32.814 0-59.541 15.049-60.608 33.901" fill="none" stroke="#000" stroke-linecap="round" stroke-width=".7058"/>
</svg>
