<?xml version="1.0" encoding="UTF-8"?>
<svg enable-background="new 0 0 431.979 250.538" viewBox="0 0 431.979 250.538" xmlns="http://www.w3.org/2000/svg">
 <path d="m376.9 193.46h-66.096l6.25 14.191h53.596z" stroke="#000" stroke-width=".6871"/>
 <path d="m137.092,74.008 72.425-.045 5.437,6.997 69.23-.044c2.763,0 6.833-.082 9.69-.695 6.915-1.488 10.44-8.697 10.44-18.205h-167.222v11.992z" stroke="#000" stroke-width=".5945"/>
 <path d="m304.292,72.102c-4.865,4.867-5.91,5.875-8.395,6.1-2.484.23-8.127.34-11.066.34l-26.309.113h-40.553v-44.426c0-10.812 3.121-10.826 10.123-10.826h8.658c5.633,0 12.225-.068 15.736,1.172 2.49.879 2.938,1.567 4.416,2.924l17.592,17.824c0,0 29.797.523 29.797,8.682v18.097z" fill="#fff" stroke="#000" stroke-width="1.5"/>
 <path d="m293.84 78.654-1.447-10.809c-0.557-3.443-3.631-7.145-7.602-7.145h-12.391c-5.68 0-8.471 4.1-9.625 7.895l-2.758 10.059" stroke="#000" stroke-width=".7475"/>
 <path d="m291.87 78.314a14.264 14.264 0 1 0 -28.528 0 14.264 14.264 0 1 0 28.528 0" stroke="#fff" stroke-width=".876"/>
 <path d="m285.61 78.314a8.008 8.008 0 1 0 -16.016 0 8.008 8.008 0 1 0 16.016 0" fill="#fff" stroke="#000" stroke-width="1.3252"/>
 <path d="m292.96 53.08" fill="none" stroke="#000" stroke-width=".9967"/>
 <path d="m292.96 53.08" fill="none" stroke="#000" stroke-width=".9967"/>
 <path d="m295.573,73.684c0,1.498.42,3.166 1.916,3.166h10.174c1.494,0 1.916-1.668 1.916-3.166v-2.254c0-1.5-.422-3.164-1.916-3.164h-10.174c-1.496,0-1.916,1.664-1.916,3.164v2.254z" fill="#fff" stroke="#000"/>
 <path d="m228.559,45.336c-1.496,0-2.709-1.213-2.709-2.711v-12.416c0-1.5 1.213-2.711 2.709-2.711h28.344l17.592,17.824h-13.879l-32.057.014z" fill="#fff" stroke="#000" stroke-width="1.5"/>
 <path d="m252.51 27.498 8.129 17.824" fill="none" stroke="#000" stroke-width=".9967"/>
 <path d="m304.292,55.096h-3.277c-.662,0-.973.545-1.195,1.195l1.598,8.416c0,.662.537,1.195 1.199,1.195h1.676" fill="#fff" stroke="#000" stroke-linecap="round" stroke-width=".7475"/>
 <path d="m253.225,46.787c0,1.104.145,1.994 1.244,1.994h3.248c1.1,0 1.494-.891 1.494-1.994v-5.715c0-1.102-.395-1.99-1.494-1.99h-3.248c-1.1,0-1.244.889-1.244,1.99v5.715z" fill="#fff" stroke="#000" stroke-width=".7475"/>
 <path d="m114.3 207.65c-4.705 5.211-6.586 9.631-16.965 9.631l-43.822-0.107c-3.209 0-3.816-0.094-7.139-0.801-8.037-1.705-12.133-9.988-12.133-20.914h160.18v12.191h-80.12z" stroke="#000" stroke-width=".6871"/>
 <path d="m157.04 214.28a16.388 16.388 0 1 0 -32.776 0 16.388 16.388 0 1 0 32.776 0" stroke="#fff" stroke-width=".9516"/>
 <path d="m149.85 214.28c0 5.08-4.119 9.201-9.203 9.201s-9.199-4.121-9.199-9.201 4.119-9.201 9.199-9.201 9.203 4.123 9.203 9.201z" fill="#fff" stroke="#000" stroke-width="1.5226"/>
 <path d="m191.56 214.28c0 9.053-7.334 16.389-16.385 16.389-9.057 0-16.393-7.336-16.393-16.389s7.336-16.387 16.393-16.387c9.051 1e-3 16.385 7.335 16.385 16.387z" stroke="#fff" stroke-width=".9516"/>
 <path d="m184.37 214.28c0 5.08-4.121 9.201-9.197 9.201-5.088 0-9.203-4.121-9.203-9.201s4.115-9.201 9.203-9.201c5.076 0 9.197 4.123 9.197 9.201z" fill="#fff" stroke="#000" stroke-width="1.5226"/>
 <path d="m72.731,195.078h39.565v-45.682c0-6.32-.346-7.484-8.391-7.484h-35.515c-6.469,0-12.785-.021-15.885.988-5.039,1.648-5.312,2.768-7.088,6.014l-7.508,20.482c0,0-3.645.6-3.645,9.977v27.68c5.592,5.59 6.793,6.744 9.65,7.006 2.854.26 5.363.391 8.74.391 .002-10.957 6.244-19.372 20.077-19.372z" fill="#fff" stroke="#000" stroke-width="1.5"/>
 <path d="m88.753 214.19c0 9.051-7.338 16.383-16.389 16.383s-16.389-7.332-16.389-16.383 7.334-16.391 16.389-16.391 16.389 7.337 16.389 16.391z" stroke="#fff" stroke-width=".9516"/>
 <path d="m81.564 214.19c0 5.076-4.119 9.195-9.199 9.195s-9.203-4.119-9.203-9.195 4.119-9.203 9.203-9.203 9.199 4.121 9.199 9.203z" fill="#fff" stroke="#000" stroke-width="1.5226"/>
 <path d="m47.285 185.19" fill="none" stroke="#000" stroke-width="1.1452"/>
 <path d="m47.285 185.19" fill="none" stroke="#000" stroke-width="1.1452"/>
 <path d="m40.035,208.867c0,1.723-.486,3.637-2.199,3.637h-7.441c-1.721,0-2.203-1.914-2.203-3.637v-2.594c0-1.719.482-3.635 2.203-3.635h7.441c1.713,0 2.199,1.916 2.199,3.635v2.594z" fill="#fff" stroke="#000" stroke-width="1.5"/>
 <path d="m194.09 202.64h2.441c1.713 0 2.199 1.916 2.199 3.635v2.594c0 1.723-0.486 3.637-2.199 3.637h-2.441v-9.866z" fill="#fff" stroke="#000" stroke-width="1.5"/>
 <path d="m75.123 165.39c1.715 0 3.109-1.391 3.109-3.115v-10.244c0-1.723-1.395-3.115-3.109-3.115h-29.706l-7.508 20.482h7.355l29.859-4.008z" fill="#fff" stroke="#000" stroke-width="1.5"/>
 <path d="m50.464 148.91-5.228 20.482" fill="none" stroke="#000"/>
 <path d="m34.265,183.773h2.045c.76,0 1.119.633 1.375,1.377l-.115,11.68c0,.758-.617,1.375-1.377,1.375h-1.928" fill="#fff" stroke="#000" stroke-linecap="round" stroke-width=".75"/>
 <path d="m53.658,173.09c0,1.266-.166,2.291-1.434,2.291h-2.932c-1.264,0-1.717-1.025-1.717-2.291v-12.021c0-1.266.453-2.289 1.717-2.289h2.932c1.268,0 1.434,1.023 1.434,2.289v12.021z" fill="#fff" stroke="#000" stroke-width=".75"/>
 <path d="m136.41 45.668h81.5v32.75h-81.5z" fill="#fff" stroke="#000" stroke-width="1.5"/>
 <path d="m292.96 56.08h-68.3" fill="none" stroke="#000" stroke-linecap="round" stroke-linejoin="round" stroke-width="2"/>
 <path d="m286.71 56.08h-61.05" fill="none" stroke="#000" stroke-linecap="round" stroke-linejoin="round"/>
 <path d="m211.25 56.08h-69.584" fill="none" stroke="#000" stroke-linecap="round" stroke-linejoin="round" stroke-width="2"/>
 <path d="m210.21 56.08h-65.133" fill="none" stroke="#000" stroke-linecap="round" stroke-linejoin="round"/>
 <path d="m102.4 161.83c0 1.656-1.343 3-3 3h-10c-1.657 0-3-1.344-3-3v-10c0-1.656 1.343-3 3-3h10c1.657 0 3 1.344 3 3v10z" fill="#fff" stroke="#000" stroke-width=".75"/>
 <path d="m120.89 115.56h282.6v77.9h-282.6z" fill="#fff" stroke="#000" stroke-width="1.5"/>
 <path d="m343.85 214.28a16.388 16.388 0 1 0 -32.776 0 16.388 16.388 0 1 0 32.776 0" stroke="#fff" stroke-width=".9516"/>
 <path d="m336.66 214.28c0 5.08-4.119 9.201-9.203 9.201s-9.199-4.121-9.199-9.201 4.119-9.201 9.199-9.201 9.203 4.123 9.203 9.201z" fill="#fff" stroke="#000" stroke-width="1.5226"/>
 <path d="m378.37 214.28c0 9.053-7.334 16.389-16.385 16.389-9.057 0-16.393-7.336-16.393-16.389s7.336-16.387 16.393-16.387c9.051 1e-3 16.385 7.335 16.385 16.387z" stroke="#fff" stroke-width=".9516"/>
 <path d="m371.18 214.28c0 5.08-4.121 9.201-9.197 9.201-5.088 0-9.203-4.121-9.203-9.201s4.115-9.201 9.203-9.201c5.076 0 9.197 4.123 9.197 9.201z" fill="#fff" stroke="#000" stroke-width="1.5226"/>
 <path d="m398.82 202.64h2.441c1.713 0 2.199 1.916 2.199 3.635v2.594c0 1.723-0.486 3.637-2.199 3.637h-2.441v-9.866z" fill="#fff" stroke="#000" stroke-width="1.5"/>
 <path d="m93.731 203.16h22.667v18.667h-22.667z" fill="#fff" stroke="#000" stroke-width=".75"/>
 <path d="m398.74 212.49v-18.03" fill="#fff" stroke="#000" stroke-width="1.5"/>
 <text x="151.1479" y="143.8262" font-family="MyriadPro-SemiboldIt" font-size="12">Truck Lines</text>
 <path d="m207.065,132.697h-62.565l-2.309,1.312 2.309,1.324h6.547v1.219h-4.438l2.543,1.465-.668,1.137-8.039-4.758v-.785l8.039-4.734 .668,1.102-2.543,1.488h60.706l-.25,1.23z"/>
 <path d="m210.328,140.186 8.039,4.734v.785l-8.039,4.758-.68-1.137 2.543-1.465h-59.959l.25-1.219h61.831l2.297-1.324-2.297-1.312h-6.297v-1.23h4.176l-2.543-1.488 .679-1.102z"/>
 <path d="m44.398 183.83h60.333" fill="none" stroke="#000" stroke-width=".75"/>
 <path d="m44.398 190.49h60.333" fill="none" stroke="#000" stroke-width=".75"/>
 <path d="m187.39 78.654-1.447-10.809c-0.557-3.443-3.631-7.145-7.602-7.145h-12.391c-5.68 0-8.471 4.1-9.625 7.895l-2.758 10.059" stroke="#000" stroke-width=".7475"/>
 <path d="m185.24 78.395a14.263 14.263 0 1 0 -28.526 0 14.263 14.263 0 1 0 28.526 0" stroke="#fff" stroke-width=".876"/>
 <path d="m178.99 78.395a8.008 8.008 0 1 0 -16.016 0 8.008 8.008 0 1 0 16.016 0" fill="#fff" stroke="#000" stroke-width="1.3252"/>
 <path d="m132.41,73.684c0,1.498.42,3.166 1.916,3.166h5.424c1.494,0 1.916-1.668 1.916-3.166v-2.254c0-1.5-.422-3.164-1.916-3.164h-5.424c-1.496,0-1.916,1.664-1.916,3.164v2.254z" fill="#fff" stroke="#000"/>
</svg>
