<?xml version="1.0" encoding="UTF-8"?>
<svg enable-background="new 0 0 518.279 250.538" viewBox="0 0 518.279 250.538" xmlns="http://www.w3.org/2000/svg">
 <path d="m154.34 159.33 5.312 1.229 4.412-17.737-5.31-1.226z" stroke="#000" stroke-width="1.8687"/>
 <path d="m159.327,141.727 4.172.964 5.113-19.349-4.172-.965z" fill="#fff" stroke="#000" stroke-width="1.8687"/>
 <path d="m208.243,160.529v-3.908c0-1.1-.893-1.992-1.992-1.992h-51.512c-1.102,0-1.992.893-1.992,1.992v3.908h55.496z" stroke="#000" stroke-width="1.495"/>
 <path d="m186.224,159.531v-19.881c0-1.102-.891-1.992-1.992-1.992h-7.475c-1.1,0-1.992.891-1.992,1.992v19.881h11.459z" stroke="#000" stroke-width="1.495"/>
 <path d="m122.438,87.795c-.75-.891-.809-1.979.145-2.527l78.625-34.438c.953-.551 2.172-.223 2.723.729l.873.906c.551.955.223,2.168-.73,2.723l-71.594,33.627 53.162,49.531-8.008,8.008-55.196-58.559z" stroke="#000" stroke-width="1.495"/>
 <path d="m223.454,50.107v26.24c0,1.104-.895,1.994-1.994,1.994h-17.398c-1.1,0-1.992-.891-1.992-1.994v-26.24h21.384z" stroke="#000" stroke-width=".4983"/>
 <path d="m215.85 200.67-149.36-0.092c-2.795 0-6.912-0.082-9.803-0.695-6.996-1.488-10.562-8.697-10.562-18.205h169.72v18.992z" stroke="#000" stroke-width=".598"/>
 <path d="m134.23 160.53h89.818v37.525h-89.818z" fill="#fff" stroke="#000" stroke-width="1.9572"/>
 <path d="m201.48 198.79-1.449-10.422c-0.557-3.441-4.408-7.145-8.377-7.145h-15.16c-3.969 0-7.82 3.703-8.377 7.145l-1.449 10.422h34.812z" stroke="#000" stroke-width=".7475"/>
 <path d="m46.153,191.762c4.865,4.867 5.91,5.875 8.395,6.1 2.484.23 8.127.34 11.066.34l26.309.113h42.303v-48.676c0-12.113-4.871-12.826-11.873-12.826h-8.658c-5.633,0-8.646-.383-12.736,1.172-6.818,2.592-8.316,6.193-9.586,7.748-2.031,2.482-13.387,12.293-15.422,15 0,0-29.797.523-29.797,8.682v22.347z" fill="#fff" stroke="#000" stroke-width="1.495"/>
 <path d="m56.606 198.31 1.447-10.809c0.557-3.443 3.631-7.145 7.602-7.145h12.391c5.68 0 8.471 4.1 9.625 7.895l2.758 10.059" stroke="#000" stroke-width=".7475"/>
 <path d="m87.103 197.98a14.264 14.264 0 1 0 -28.528 0 14.264 14.264 0 1 0 28.528 0" stroke="#000" stroke-width=".876"/>
 <path d="m80.849 197.98a8.008 8.008 0 1 0 -16.016 0 8.008 8.008 0 1 0 16.016 0" fill="#fff" stroke="#000" stroke-width="1.3252"/>
 <path d="m57.481 172.74" fill="none" stroke="#000" stroke-width=".9967"/>
 <path d="m57.481 172.74" fill="none" stroke="#000" stroke-width=".9967"/>
 <path d="m54.872,193.344c0,1.498-.42,3.166-1.916,3.166h-10.174c-1.494,0-1.916-1.668-1.916-3.166v-2.254c0-1.5.422-3.164 1.916-3.164h10.174c1.496,0 1.916,1.664 1.916,3.164v2.254z" fill="#fff" stroke="#000" stroke-width="1.495"/>
 <path d="m121.89 157.25c1.496 0 2.709-1.213 2.709-2.711v-8.916c0-1.5-1.213-2.711-2.709-2.711h-28.344l-17.592 17.824h13.879l32.057-3.486z" fill="#fff" stroke="#000" stroke-width="1.495"/>
 <path d="m97.935 142.91-8.129 17.824" fill="none" stroke="#000" stroke-width=".9967"/>
 <path d="m46.153,171.506h1.777c.662,0 .973.545 1.195,1.195l-.098,10.166c0,.662-.537,1.195-1.199,1.195h-1.676" fill="#fff" stroke="#000" stroke-linecap="round" stroke-width=".7475"/>
 <path d="m98.22,163.947c0,1.104-.145,1.994-1.244,1.994h-1.248c-1.1,0-1.494-.891-1.494-1.994v-10.465c0-1.102.395-1.99 1.494-1.99h1.248c1.1,0 1.244.889 1.244,1.99v10.465z" fill="#fff" stroke="#000" stroke-width=".7475"/>
 <path d="m198.23 198.05a14.263 14.263 0 1 0 -28.526 0 14.263 14.263 0 1 0 28.526 0" stroke="#fff" stroke-width=".876"/>
 <path d="m191.98 198.05a8.008 8.008 0 1 0 -16.016 0 8.008 8.008 0 1 0 16.016 0" fill="#fff" stroke="#000" stroke-width="1.3252"/>
 <path d="m400.22,118.559c.814.74 2.078.68 2.816-.133l2.348-2.582c.74-.814.68-2.078-.137-2.816l-76.516-64.854c-.814-.742-2.076-.68-2.818.137l-.812.926c-.742.814-.682,2.074.133,2.814l74.986,66.508z" stroke="#000" stroke-width="1.495"/>
 <path d="m400.13 189.32c4.705 5.211 6.586 9.631 16.965 9.631l30.822-0.107c3.209 0 3.816-0.094 7.139-0.801 8.037-1.705 12.133-9.988 12.133-20.914h-174.62v12.191h107.56z" stroke="#000" stroke-width=".6871"/>
 <path d="m367.6 195.95a16.388 16.388 0 1 0 -32.776 0 16.388 16.388 0 1 0 32.776 0" stroke="#fff" stroke-width=".9516"/>
 <path d="m342.01 195.95c0 5.08 4.119 9.201 9.203 9.201s9.199-4.121 9.199-9.201-4.119-9.201-9.199-9.201-9.203 4.123-9.203 9.201z" fill="#fff" stroke="#000" stroke-width="1.5226"/>
 <path d="m300.3 195.95c0 9.053 7.334 16.389 16.385 16.389 9.057 0 16.393-7.336 16.393-16.389s-7.336-16.387-16.393-16.387c-9.051 1e-3 -16.385 7.335-16.385 16.387z" stroke="#fff" stroke-width=".9516"/>
 <path d="m307.49 195.95c0 5.08 4.121 9.201 9.197 9.201 5.088 0 9.203-4.121 9.203-9.201s-4.115-9.201-9.203-9.201c-5.076 0-9.197 4.123-9.197 9.201z" fill="#fff" stroke="#000" stroke-width="1.5226"/>
 <path d="m289.07 152.83h92.465v25.156h-92.465z" fill="#fff" stroke="#000" stroke-width="1.7178"/>
 <path d="m463.521,153.064c0,0 3.645.6 3.645,9.977v25.68c-5.592,5.59-6.793,6.744-9.65,7.006-2.854.26-3.363.391-6.74.391l-4.529.129h-34.111v-55.932c0-13.916 5.596-14.734 13.641-14.734h7.266c6.469,0 12.785-.021 15.885.988 5.039,1.648 5.312,2.768 7.088,6.014l7.505,20.481z" fill="#fff" stroke="#000" stroke-width="1.7178"/>
 <path d="m436.19 196.25-2.385-12.418c-0.641-3.955-5.602-8.213-10.164-8.213h-13.701c-4.355 0-9.553 4.709-10.881 9.072l-1.738 11.559" stroke="#000" stroke-width=".8589"/>
 <path d="m400.43 195.86c0 9.051 7.338 16.383 16.389 16.383s16.389-7.332 16.389-16.383-7.334-16.391-16.389-16.391-16.389 7.337-16.389 16.391z" stroke="#fff" stroke-width=".9516"/>
 <path d="m407.62 195.86c0 5.076 4.119 9.195 9.199 9.195s9.203-4.119 9.203-9.195-4.119-9.203-9.203-9.203-9.199 4.121-9.199 9.203z" fill="#fff" stroke="#000" stroke-width="1.5226"/>
 <path d="m454.15 166.86" fill="none" stroke="#000" stroke-width="1.1452"/>
 <path d="m454.15 166.86" fill="none" stroke="#000" stroke-width="1.1452"/>
 <path d="m457.146,190.535c0,1.723.486,3.637 2.199,3.637h11.691c1.721,0 2.203-1.914 2.203-3.637v-2.594c0-1.719-.482-3.635-2.203-3.635h-11.691c-1.713,0-2.199,1.916-2.199,3.635v2.594z" fill="#fff" stroke="#000" stroke-width="1.7178"/>
 <path d="m426.31 149.06c-1.715 0-3.109-1.391-3.109-3.115v-10.244c0-1.723 1.395-3.115 3.109-3.115h29.705l7.508 20.482h-7.355l-29.858-4.008z" fill="#fff" stroke="#000" stroke-width="1.7178"/>
 <path d="m450.97 132.58 5.228 20.482" fill="none" stroke="#000" stroke-width="1.1452"/>
 <path d="m467.165,165.441h-2.045c-.76,0-1.119.633-1.375,1.377l.115,11.68c0,.758.617,1.375 1.377,1.375h1.928" fill="#fff" stroke="#000" stroke-linecap="round" stroke-width=".8589"/>
 <path d="m446.522,156.758c0,1.266.166,2.291 1.434,2.291h1.432c1.264,0 1.717-1.025 1.717-2.291v-12.021c0-1.266-.453-2.289-1.717-2.289h-1.432c-1.268,0-1.434,1.023-1.434,2.289v12.021z" fill="#fff" stroke="#000" stroke-width=".8589"/>
 <path d="m388.75 163.57h18.582v13.385h-18.582z" stroke="#000" stroke-width="1.7178"/>
 <path d="m388.749,163.441c0,.789.639,1.43 1.43,1.43h15.721c.789,0 1.432-.641 1.432-1.43v-.818c0-.791-.643-1.43-1.432-1.43h-15.721c-.791,0-1.43.639-1.43,1.43v.818z" stroke="#000" stroke-width="1.7178"/>
 <path d="m399.503,162.582c-.059.787.531,1.475 1.32,1.535l2.961.217c.787.059 1.473-.531 1.531-1.32l2.695-36.33c.055-.789-.535-1.473-1.324-1.533l-2.957-.215c-.787-.061-1.475.529-1.533,1.318l-2.693,36.328z" stroke="#000" stroke-width="1.7178"/>
 <path transform="matrix(-.99728,-.0737,.0737,-.99728,0,0)" d="m-407.12-132.28h5.0101v20.405h-5.0101z" stroke="#000" stroke-width="1.7178"/>
 <path transform="matrix(-.99727,-.0739,.0739,-.99727,0,0)" d="m-406.61-111.8h3.9391v20.091h-3.9391z" fill="#fff" stroke="#000" stroke-width="1.7179"/>
 <path d="m393.071,123.107c-.076.787.498,1.488 1.287,1.562l11.947,2.207c.787.078 1.488-.498 1.564-1.287l-1.908-10.336c.072-.787-.498-1.486-1.287-1.562l-9.803-2.746c-.787-.078-1.488.5-1.561,1.285l-.239,10.877z" stroke="#000" stroke-width="1.7178"/>
 <path d="m326.101,50.275h2.379v14.652l4.85,4.838c.924,1.258 1.469,2.809 1.469,4.488 0,4.199-3.406,7.602-7.604,7.602s-7.6-3.402-7.6-7.602h2.312c0,2.924 2.365,5.293 5.287,5.293 2.926,0 5.293-2.369 5.293-5.293 0-1.033-.297-2-.814-2.812l-5.572-5.471v-15.695z" stroke="#000"/>
</svg>
