<?xml version="1.0" encoding="utf-8" ?><svg xmlns="http://www.w3.org/2000/svg" xmlns:xlink="http://www.w3.org/1999/xlink" width="1024" height="1024" viewBox="0 0 1024 1024"><path fill="white" d="M0 0L1024 0L1024 1024L0 1024L0 0Z"/><path fill="#092B42" d="M398.859 158.214L579.297 158.19L634.815 158.206C644.845 158.212 655.511 157.561 665.468 158.635C668.75 158.99 672.013 160.075 674.439 162.407C676.858 164.734 677.27 169.311 677.527 172.523C678.126 180.009 677.698 187.846 677.695 195.363L677.696 237.245L677.642 367.821L696.985 367.717L696.98 208.003L762.538 207.942C776.093 207.942 787.565 208.903 797.6 219.089C799.342 220.832 800.908 222.743 802.274 224.793C815.489 244.301 827.245 265.124 839.627 285.192C844.525 293.131 854.069 305.659 857.032 313.885C860.204 322.69 859.067 333.486 859.017 342.75L859.087 386.526C862.769 386.481 867.833 385.77 870.835 388.352C873.792 390.896 874.89 395.163 875.088 398.906C875.458 405.913 876.703 418.76 871.578 424.086C870.372 425.339 868.919 426.256 867.21 426.631C862.094 427.754 855.715 427.066 850.43 427.06L816.975 426.999C815.063 420.155 813.134 413.774 809.631 407.535C801.306 392.647 787.386 381.694 770.958 377.103C755.358 372.827 738.697 374.966 724.683 383.044C707.463 393.03 698.726 408.272 693.735 427.006C664.808 427.017 635.66 427.794 606.759 426.863C600.073 421.101 593.974 414.516 587.723 408.277L556.066 376.655C522.246 342.965 488.617 309.084 455.181 275.013L420.852 240.231C413.179 232.473 400.068 221.078 395.069 212.081C388.407 200.09 393.368 185.2 395.108 172.703C395.646 168.838 395.184 163.821 396.552 160.219C397.124 158.715 397.439 158.762 398.859 158.214Z"/><path fill="white" d="M731.051 234.646C741.263 234.823 767.972 233.195 776.234 235.688C778.993 236.521 781.547 239.307 783.304 241.505C788.083 247.48 791.85 254.784 795.823 261.329C802.496 272.322 809.35 283.252 815.66 294.459L731.04 294.5L731.051 234.646Z"/><path fill="#092B42" d="M259.23 55.1982C282.866 52.3951 309.081 58.9883 328.632 72.3916C359.397 93.4827 376.317 130.873 373.79 167.896C372.891 181.067 368.509 193.831 371.062 207.123C372.554 214.894 375.999 222.552 381.069 228.647C385.589 234.081 391.008 238.973 396.01 243.97L422.757 270.686L509.483 357.377L566.681 414.695C575.226 423.304 588.327 438.147 597.528 444.629C608.137 452.102 618.8 451.58 630.995 453.712C640.864 455.482 650.242 459.334 658.506 465.012C673.777 475.551 684.205 491.754 687.472 510.018C690.697 528.483 686.831 548.237 675.912 563.581C664.994 578.684 648.611 588.929 630.252 592.133C611.556 595.239 592.704 591.738 577.172 580.608C562.541 569.976 552.527 554.153 549.183 536.379C548.026 530.523 547.835 524.538 546.877 518.65C545.894 514.978 544.343 511.483 542.279 508.292C535.641 497.983 524.073 488.485 515.312 479.836C503.047 467.74 490.854 455.571 478.733 443.33L371.427 336.283L335.327 300.038C328.226 292.857 321.277 285.443 313.961 278.488C311.482 276.131 308.74 273.796 305.731 272.14C291.806 264.479 277.308 266.904 262.241 266.632C255.291 266.507 248.181 265.583 241.404 264.055C213.735 257.85 189.711 240.807 174.712 216.743C158.33 190.613 155.881 160.841 162.592 131.251C178.041 145.329 192.535 160.885 207.296 175.723C212.776 181.232 218.267 187.836 224.356 192.602C226.463 194.252 228.097 195.293 230.821 195.369C245.42 195.781 269.104 183.26 279.715 173.312C291.913 161.875 299.688 141.086 299.906 124.586C299.937 122.256 299.813 119.744 298.566 117.702C294.71 111.382 286.367 104.062 281.034 98.4656C268.085 84.8078 255.045 71.2358 241.916 57.7506C247.511 56.3591 253.501 55.8194 259.23 55.1982Z"/><path fill="white" d="M616.236 489.186C635.073 487.976 651.366 502.172 652.746 520.998C654.126 539.823 640.078 556.244 621.266 557.795C602.211 559.366 585.532 545.097 584.133 526.029C582.735 506.96 597.155 490.411 616.236 489.186Z"/><path fill="#092B42" d="M382.698 392.869C407.822 390.55 430.107 408.945 432.592 434.053C435.077 459.162 416.829 481.568 391.738 484.218C366.411 486.894 343.748 468.438 341.24 443.094C338.732 417.749 357.338 395.209 382.698 392.869Z"/><path fill="white" d="M385.668 419.744C395.992 419.123 404.886 426.941 405.594 437.26C406.303 447.578 398.56 456.538 388.248 457.333C377.812 458.138 368.721 450.282 368.004 439.84C367.288 429.398 375.22 420.373 385.668 419.744Z"/><path fill="#092B42" d="M750.955 392.951C776.005 390.518 798.312 408.784 800.868 433.821C803.424 458.859 785.267 481.255 760.242 483.933C735.044 486.629 712.459 468.319 709.886 443.108C707.312 417.898 725.732 395.402 750.955 392.951Z"/><path fill="white" d="M753.559 419.891C763.816 418.915 772.932 426.417 773.949 436.67C774.965 446.924 767.5 456.07 757.251 457.127C746.943 458.191 737.734 450.674 736.712 440.362C735.689 430.051 743.243 420.872 753.559 419.891Z"/><path fill="#092B42" d="M371.764 647.104L394.928 647.085C395.27 673.777 394.96 700.513 394.967 727.21C404.057 714.372 413.921 702.055 422.705 689.01C431.557 688.872 440.429 688.992 449.283 688.992C439.889 701.327 430.15 713.628 419.881 725.246L442.933 761.673L453.39 778.361C444.35 778.101 435.274 778.265 426.231 778.369L402.551 739.872C399.796 742.455 397.353 745.491 394.977 748.42L394.973 778.373C387.22 778.189 379.45 778.299 371.695 778.31C372.074 762.952 371.776 747.524 371.776 732.159L371.764 647.104Z"/><path fill="#092B42" d="M936.815 687.165C940.365 686.741 944.362 686.829 947.921 687.227C956.911 688.232 965.45 692.01 971.155 699.226C980.067 710.501 980.407 726.402 978.926 740.023L923.951 740.021C924.316 742.683 924.733 745.361 925.746 747.867C927.975 753.387 932.204 757.375 937.73 759.519C948.782 763.807 961.359 760.598 971.787 756.156L975.307 771.906C969.855 775.535 963.673 777.686 957.235 778.743C943.888 780.934 929.317 779.628 918.089 771.52C908.703 764.742 903.3 754.075 901.581 742.783C899.462 728.863 901.782 713.204 910.43 701.778C917.02 693.072 926.174 688.65 936.815 687.165Z"/><path fill="white" d="M938.928 703.578C944.071 703.245 948.486 703.651 952.467 707.291C955.6 710.156 957.666 714.85 957.836 719.079C957.911 720.947 957.564 722.315 956.229 723.693C952.53 724.349 948.392 723.99 944.625 723.962L924.228 723.946C925.015 719.768 925.774 715.459 927.822 711.679C930.379 706.959 933.985 705.002 938.928 703.578Z"/><path fill="#092B42" d="M569.371 687.17C572.954 686.964 576.552 686.823 580.132 687.167C589.017 688.02 597.437 691.726 603.133 698.752C612.408 710.195 612.559 726.103 611.219 740.025L556.684 740.092C556.73 740.983 556.805 741.872 556.909 742.758C557.605 748.481 560.116 753.444 564.774 756.951C572.819 763.011 585.243 762.66 594.56 760.158C597.548 759.356 600.407 757.608 603.462 757.236L604.073 758.118L608.187 772.899C602.693 776.399 596.272 778.293 589.863 779.214C576.568 781.125 561.556 780.108 550.513 771.722C541.024 764.516 535.652 753.632 534.052 741.97C532.161 728.188 534.534 712.796 543.193 701.567C549.793 693.01 558.811 688.609 569.371 687.17Z"/><path fill="white" d="M570.778 703.588C571.813 703.505 572.848 703.494 573.887 703.495C578.054 703.498 582.22 704.646 585.16 707.755C589.36 712.198 589.375 718.246 589.121 723.953L576.25 723.966L556.795 723.965C557.425 720.012 558.087 715.962 559.873 712.337C562.266 707.48 565.818 705.22 570.778 703.588Z"/><path fill="#092B42" d="M306.111 300.3C310.475 302.793 328.618 322.252 333.558 327.201C348.049 341.719 363.469 355.845 377.223 371.037C359.047 377.122 346.574 383.215 334.886 399.028C328.844 407.858 325.75 416.628 323.419 426.974C316.835 427.059 300.26 428.679 295.843 424.332C293.883 422.403 292.917 419.71 292.496 417.044C291.815 412.727 292.218 407.868 292.236 403.492L292.329 380.024C296.817 380.017 301.267 380.017 305.742 379.618C306.418 371.917 305.976 363.861 305.97 356.115C305.955 337.555 305.422 318.842 306.111 300.3Z"/><path fill="#092B42" d="M249.989 688.992L273.041 688.983L273.018 722.25L273.051 778.35C266.035 778.249 259.056 778.249 252.043 778.496C251.783 774.053 251.598 769.606 251.488 765.156C243.632 773.2 236.088 779.395 224.4 779.947C217.156 780.289 209.179 778.439 203.833 773.312C200.012 769.647 197.836 764.692 196.679 759.6C194.4 749.575 195.213 738.441 195.212 728.194L195.225 688.981L218.136 688.977C218.102 707.199 217.182 725.904 218.313 744.071C218.585 748.447 219.248 754.573 222.823 757.512C225.944 760.078 230.653 760.455 234.519 760.078C241.014 759.445 245.957 755.952 249.987 751.06L249.989 688.992Z"/><path fill="#092B42" d="M44.4277 653.172C73.412 653.865 102.52 653.403 131.517 653.289L131.505 676.019L100.755 676.061C101.078 700.279 100.847 724.529 100.838 748.75C100.868 758.607 100.847 768.464 100.778 778.321C92.5162 778.234 84.254 778.244 75.9929 778.35L75.9756 676.027L44.3912 676.049C44.2627 668.424 44.2749 660.797 44.4277 653.172Z"/><path fill="#092B42" d="M685.952 688.997L710.165 688.971L729.998 755.86C736.499 733.605 742.852 711.307 749.056 688.967L772.988 688.993C771.011 694.915 768.991 700.823 766.927 706.716C764.58 714.833 761.625 722.874 758.978 730.905L743.426 778.392C734.218 778.121 724.994 778.272 715.784 778.322C705.366 748.736 695.965 718.728 685.952 688.997Z"/><path fill="#092B42" d="M490.541 686.203C499.875 685.856 508.846 687.991 517.783 690.385L517.564 710.131C509.728 706.988 501.052 704.145 492.503 704.384C488.762 704.488 485.349 705.17 482.76 708.054C481.576 709.373 480.508 710.968 480.876 712.843C482.191 719.533 498.428 723.132 504.085 725.45C507.595 726.888 511.048 728.61 514.033 730.976C519.405 735.233 522.239 741.245 522.877 747.996C523.541 755.01 521.857 762.838 517.199 768.298C510.25 776.443 499.623 779.055 489.433 779.968C478.861 780.035 469.209 778.346 459.319 774.599C459.503 768.121 459.725 761.644 459.988 755.169C467.645 758.608 476.534 761.652 485.039 761.445C488.701 761.355 494.85 760.691 497.416 757.773C498.678 756.338 499.569 754.244 499.366 752.31C498.447 743.565 475.485 739.649 467.88 733.804C462.853 729.941 459.185 724.714 458.494 718.298C457.696 710.897 460.268 702.375 465.152 696.732C471.644 689.231 481.099 686.997 490.541 686.203Z"/><path fill="#092B42" d="M867.111 686.203C875.304 685.615 883.831 687.476 891.458 690.355C890.657 696.472 890.97 702.932 890.658 709.11C882.286 705.857 871.964 704.422 863.405 707.802C857.401 710.16 852.623 714.87 850.18 720.84C846.944 728.572 846.973 739.117 850.177 746.864C852.464 752.397 856.582 756.713 862.146 758.993C871.408 762.79 881.445 760.654 890.309 756.931C891.218 762.688 891.933 768.49 892.766 774.26L892.509 775.005C887.891 777.803 881.958 778.839 876.667 779.49C863.332 781.131 849.373 779.027 838.612 770.505C829.365 763.181 824.177 752.022 822.953 740.428C821.554 727.176 824.355 713.355 832.907 702.87C841.629 692.176 853.7 687.479 867.111 686.203Z"/><path fill="#092B42" d="M335.268 686.218C342.971 686.44 349.698 688.002 357.017 690.39C356.546 696.61 356.289 702.862 355.953 709.092C347.609 706.031 337.378 704.399 328.792 707.436C322.704 709.59 317.942 713.941 315.32 719.848C311.826 727.718 311.727 739.21 315.109 747.121C317.442 752.578 321.667 756.899 327.202 759.098C336.406 762.755 346.664 760.792 355.394 756.877C356.289 762.759 357.52 768.995 357.833 774.922C351.733 777.839 344.985 779.335 338.263 779.859C325.375 780.865 312.552 777.968 302.609 769.395C293.69 761.706 288.818 750.762 288.033 739.108C287.118 725.531 290.132 712.004 299.315 701.606C308.762 690.909 321.441 687.071 335.268 686.218Z"/><path fill="#092B42" d="M669.467 687.146C672.794 686.895 676.127 687.035 679.459 687.112C680.584 694.501 680.08 702.515 679.961 709.975C678.047 709.689 676.117 709.531 674.182 709.5C667.892 709.362 661.059 711.143 656.506 715.674C654.034 718.115 652.315 721.214 651.551 724.603C650.138 730.794 650.948 738.251 650.956 744.607L650.992 778.347C643.936 778.265 634.739 779.3 627.97 778.041L627.528 777.071L627.465 688.985L648.586 688.972C648.58 694.041 648.684 699.055 648.976 704.118C650.227 701.728 651.491 699.364 653.059 697.162C657.243 691.289 662.447 688.307 669.467 687.146Z"/><path fill="#092B42" d="M175.045 687.146C175.957 687.1 176.869 687.06 177.782 687.025C179.997 686.941 182.263 686.591 183.991 688.194C185.714 694.901 184.942 703.197 184.99 710.104C182.867 709.875 180.73 709.683 178.593 709.657C172.391 709.581 165.605 711.614 161.232 716.157C158.856 718.633 157.228 721.729 156.535 725.09C155.22 731.199 155.965 738.431 155.976 744.686L156.03 778.375C152.062 778.249 135.259 779.321 132.993 777.754L132.854 775.625C132.996 746.744 132.878 717.863 132.501 688.984L153.987 688.983C153.952 694.307 153.983 699.63 154.079 704.953C155.765 702.206 157.163 699.334 159.059 696.707C163.231 690.924 168.128 688.246 175.045 687.146Z"/><path fill="#092B42" d="M784.962 688.982L808.02 688.974L808.023 778.366C800.338 778.266 792.653 778.258 784.969 778.341L784.962 688.982Z"/><path fill="#4C555F" d="M630.507 829.629L638.681 829.566C638.858 852.654 638.466 875.754 638.945 898.837C636.693 899.247 634.465 899.572 632.188 899.807C630.973 898.74 631.879 897.036 631.043 895.571C629.146 895.767 627.739 896.713 626.074 897.577C620.652 900.39 615.978 900.162 610.174 898.704C605.002 896.754 601.268 893.354 599.057 888.244C596.02 881.225 595.988 871.3 598.794 864.195C600.937 858.769 604.905 854.233 610.414 852.099C617.4 849.392 624.009 851.138 630.54 854.014L630.507 829.629Z"/><path fill="white" d="M616.257 858.076C622.068 857.634 625.693 858.52 630.522 861.927L630.521 888.211C627.149 890.777 624.431 892.217 620.255 893.064C617.982 893.094 615.605 893.066 613.472 892.174C610.216 890.814 607.734 887.834 606.496 884.59C604.371 879.022 604.454 871.102 607.029 865.715C609.057 861.474 611.912 859.528 616.257 858.076Z"/><path fill="#4C555F" d="M296.893 850.652C302.404 850.326 308.085 851.602 312.52 855C317.682 858.955 320.357 865.042 321.047 871.387C321.839 878.663 320.523 886.618 315.737 892.367C311.434 897.535 306.174 899.087 299.774 899.803C295.056 900.125 289.797 898.874 285.864 896.269C280.875 892.965 277.9 887.561 276.748 881.78C275.268 874.35 276.457 865.728 280.931 859.51C284.953 853.921 290.33 851.694 296.893 850.652Z"/><path fill="white" d="M295.645 857.58C298.967 857.331 302.125 857.275 305.139 858.881C308.632 860.742 310.872 863.944 312.003 867.684C313.711 873.333 313.583 880.888 310.697 886.096C308.608 889.868 305.895 891.75 301.847 892.992C299.01 893.089 296.218 893.354 293.535 892.233C289.891 890.71 287.306 887.777 285.844 884.147C283.655 878.709 283.736 871.314 286.165 865.966C288.201 861.485 291.158 859.311 295.645 857.58Z"/><path fill="#4C555F" d="M901.833 858.005C906.349 853.935 911.444 850.389 917.788 850.471C921.264 850.516 924.69 851.632 927.135 854.182C929.188 856.323 930.347 859.145 930.963 862.009C932.909 871.064 931.683 889.19 931.628 899.026L923.479 899.056C923.444 890.294 924.582 874.047 923.194 866.177C922.799 863.933 922.044 861.598 920.428 859.925C918.963 858.409 917.119 857.816 915.04 857.898C909.795 858.103 906.502 861.13 903.086 864.714C902.923 873.674 903.067 882.662 903.064 891.625L903.085 899.052L894.966 899.101C895.009 890.68 896.056 873.431 894.643 865.929C894.226 863.715 893.442 861.456 891.822 859.825C890.387 858.379 888.541 857.834 886.538 857.907C881.217 858.099 877.863 861.111 874.464 864.821L874.51 899.025L866.276 899.077C865.873 883.278 866.516 867.478 865.903 851.667L874.012 851.583L874.112 858.129C878.341 853.869 881.449 851.799 887.414 850.605C889.118 850.549 890.9 850.626 892.574 850.965C897.038 851.867 899.415 854.414 901.833 858.005Z"/><path fill="#4C555F" d="M492.077 833.057L501.081 833.105L501.056 861.845L531.889 861.758C531.751 852.196 531.692 842.633 531.71 833.07L540.502 833.072C540.45 855.012 541.13 877.128 540.392 899.043L531.697 899.068L531.825 869.435L501.042 869.438L501.103 899.077L492.168 899.088C491.864 877.092 492.099 855.057 492.077 833.057Z"/><path fill="#4C555F" d="M102.978 833.067L111.697 833.031C112.217 854.953 111.754 877.022 111.667 898.954C108.807 899.161 105.853 899.056 102.981 899.095L102.967 869.493L72.0369 869.468L72.0796 899.065L63.4243 899.056L63.4108 833.051L72.0509 833.096L72.0678 861.763C82.3697 861.673 92.6722 861.682 102.974 861.79L102.978 833.067Z"/><path fill="#4C555F" d="M391.054 850.597C391.803 850.539 391.666 850.536 392.423 850.532C397.695 850.507 403.091 851.622 406.914 855.517C412.771 861.485 412.177 870.137 411.981 877.825L380.095 877.749C380.331 879.13 380.62 880.501 380.962 881.86C381.965 885.703 384.3 889.17 387.805 891.148C392.935 894.043 398.755 893.232 404.162 891.739L408.723 889.852L410.473 895.804C408.072 897.066 405.536 898.053 402.914 898.747C395.9 900.527 387.807 900.223 381.535 896.335C376.847 893.429 373.828 888.754 372.588 883.427C370.844 875.93 371.791 866.698 375.912 860.157C379.537 854.403 384.632 851.928 391.054 850.597Z"/><path fill="white" d="M391.862 857.09C394.66 857.163 397.579 857.582 399.822 859.394C403.36 862.251 403.8 866.71 404.267 870.907L394.625 870.926L380.531 870.927C381.181 868.087 381.848 865.14 383.413 862.641C385.466 859.362 388.224 858.031 391.862 857.09Z"/><path fill="#4C555F" d="M669.097 850.579C669.905 850.532 670.698 850.49 671.507 850.513C676.802 850.665 681.985 852.027 685.637 856.108C691.016 862.119 690.728 870.372 690.135 877.861C679.641 877.776 669.148 877.75 658.654 877.783C658.94 879.553 659.208 881.368 659.732 883.085C660.824 886.666 663.398 889.847 666.763 891.518C672.065 894.151 678.138 893.158 683.545 891.456C684.774 890.883 685.74 890.336 687.14 890.445C688.518 891.484 688.831 894.073 689.266 895.688C687.07 896.797 684.835 897.787 682.473 898.487C675.429 900.575 667.06 900.533 660.557 896.831C655.439 893.917 652.201 889.054 650.879 883.368C649.153 875.938 650.002 866.533 654.136 860.026C657.696 854.422 662.815 851.914 669.097 850.579Z"/><path fill="white" d="M670.481 857.096C672.946 857.076 675.682 857.736 677.679 859.223C681.375 861.976 681.942 866.661 682.581 870.876L670.875 870.925L658.702 870.933C659.417 867.907 660.111 864.757 661.868 862.136C663.996 858.961 666.847 857.789 670.481 857.096Z"/><path fill="#4C555F" d="M810.895 850.64C812.271 850.47 813.529 850.477 814.915 850.574C819.973 850.926 824.521 852.505 827.83 856.517C832.802 862.546 832.58 870.524 831.997 877.838L800.716 877.779C800.806 879.366 800.938 880.965 801.28 882.519C802.083 886.022 804.283 889.043 807.369 890.883C812.592 893.94 818.661 893.095 824.231 891.699C825.549 891.067 826.708 890.375 828.21 890.41C829.655 891.78 829.834 893.871 830.342 895.779C828.074 896.994 825.668 898.021 823.177 898.683C816.134 900.558 808.084 900.272 801.751 896.391C796.698 893.293 793.704 888.359 792.482 882.64C790.879 875.142 792.084 865.51 796.462 859.166C800.055 853.959 804.869 851.724 810.895 850.64Z"/><path fill="white" d="M812.591 857.124C814.771 857.187 816.982 857.52 818.801 858.791C821.37 860.586 824.435 864.435 824.653 867.685C824.74 868.981 824.251 869.672 823.466 870.623C820.582 871.499 816.315 870.961 813.25 870.934L800.543 870.946C801.275 867.832 801.924 864.601 803.793 861.933C806.02 858.756 808.931 857.804 812.591 857.124Z"/><path fill="#4C555F" d="M137.459 850.635C142.747 850.037 149.173 850.565 153.588 853.737C156.452 855.794 158.297 858.776 159.204 862.159C161.869 872.109 159.176 887.578 161.001 898.845C161.032 899.04 161.069 899.233 161.102 899.427C158.561 899.859 155.971 899.984 153.402 900.18L152.592 893.219C149.917 895.916 147.07 898.041 143.386 899.145C137.993 900.763 133.006 899.569 128.235 896.865C124.821 893.486 123.488 889.679 123.502 884.899C123.513 881.323 124.33 877.794 127 875.249C132.895 869.63 144.536 870.916 152.095 870.939C152.119 867.959 152.413 864.797 150.899 862.119C149.501 859.646 147.496 858.064 144.747 857.326C138.814 855.734 132.844 858.011 127.731 860.871L126.106 854.854C129.847 852.61 133.191 851.419 137.459 850.635Z"/><path fill="white" d="M142.219 876.725C145.492 876.75 148.78 876.933 152.052 877.041C152.046 880.243 151.998 883.444 151.908 886.645C148.871 890.033 146.1 892.038 141.662 893.146L141.353 893.124C139.111 892.986 137.141 892.918 135.211 891.654C133.349 890.433 131.982 888.518 131.634 886.299C131.274 884.005 132.001 881.76 133.49 880.002C135.884 877.178 138.797 876.991 142.219 876.725Z"/><path fill="#4C555F" d="M742.568 829.608L750.818 829.586C750.985 838.899 751.044 848.213 750.995 857.527C755.04 853.72 759.705 850.733 765.432 850.471C769.275 850.294 773.335 851.418 776.108 854.18C783.315 861.358 780.955 889.009 780.901 899.021L772.958 899.08L772.876 871.766C772.812 870.747 772.739 869.728 772.657 868.71C772.366 865.183 771.621 861.798 768.657 859.495C766.795 858.047 764.565 857.57 762.251 857.862C757.701 858.438 753.617 861.912 750.954 865.444L751.002 899.043L742.638 899.082C742.757 875.924 742.734 852.765 742.568 829.608Z"/><path fill="#4C555F" d="M196.138 850.576C196.496 850.554 196.855 850.541 197.214 850.535C201.203 850.483 205.275 851.535 208.137 854.442C215.37 861.791 213.036 888.843 213.002 899.041L204.64 899.05C204.578 890.873 206.156 868.959 202.85 862.44C201.801 860.372 200.127 858.699 197.85 858.076C194.456 857.149 190.547 858.643 187.611 860.259C185.64 861.614 184.014 863.303 182.312 864.971C181.886 876.26 182.318 887.731 182.358 899.038L174.172 899.094C173.956 883.318 174.215 867.538 173.952 851.757L181.969 851.705L182.151 858.587C186.051 853.778 190.242 851.864 196.138 850.576Z"/><path fill="#4C555F" d="M248.186 850.554C248.623 850.529 249.061 850.511 249.498 850.502C253.463 850.422 257.415 851.362 260.277 854.25C267.382 861.42 265.116 889.053 265.086 899.068L256.966 899.103C257.001 890.463 258.542 869.662 255.153 862.696C254.16 860.653 252.54 859.022 250.351 858.31C246.53 857.066 242.681 858.827 239.356 860.58C237.876 861.802 236.414 863.045 234.969 864.309C234.594 875.835 234.91 887.479 234.901 899.018L226.575 899.068C226.627 883.367 227.233 867.39 226.179 851.721L234.407 851.666C234.288 853.998 234.268 856.338 234.215 858.672C238.614 854.248 242.063 852.011 248.186 850.554Z"/><path fill="#4C555F" d="M715.017 850.649C720.021 849.967 725.184 851.564 729.93 852.946C729.714 855.618 729.633 858.319 729.492 860.997C725.316 858.341 720.526 856.883 715.549 857.418C713.211 857.669 709.786 858.445 708.404 860.576C707.716 861.638 707.789 862.742 708.074 863.917C709.862 871.28 720.763 871.814 726.16 875.52C728.709 877.269 730.367 879.618 730.782 882.716C731.255 886.253 730.409 891.356 728.058 894.135C724.402 898.455 718.351 899.291 713.058 899.768C707.917 899.554 703.63 898.56 698.734 896.981L698.948 888.809C704.144 891.485 709.325 893.471 715.29 892.957C717.361 892.779 719.844 891.991 721.169 890.289C722.193 888.974 722.914 887.154 722.467 885.485C721.04 880.154 710.971 878.049 706.713 875.472C703.593 873.584 700.358 870.586 699.656 866.844C698.997 863.332 700.678 859.829 702.645 857.026C705.787 852.546 709.905 851.485 715.017 850.649Z"/><path fill="#4C555F" d="M358.648 851.849L367.166 851.643L364.635 858.852L350.82 899.086L341.703 899.062C336.457 883.254 329.837 867.733 325.196 851.751C328.017 851.852 330.868 851.712 333.69 851.661C337.667 864.854 342.375 877.917 346.708 891.005L358.648 851.849Z"/><path fill="#092B42" d="M783.034 651.06L807.859 651.049C807.948 659.022 807.954 666.996 807.879 674.97L783.053 675L783.034 651.06Z"/><path fill="#4C555F" d="M577.059 829.595L585.584 829.58L585.534 899.024L577.18 899.08C576.882 875.928 577.133 852.751 577.059 829.595Z"/><path fill="#4C555F" d="M441.557 851.072C443.418 850.893 444.839 850.572 446.47 851.53C447.713 853.736 447.131 857.429 447.131 859.969C445.104 859.743 442.993 859.592 440.985 860.047C436.94 860.964 434.743 863.677 432.533 866.978C432.261 877.642 432.445 888.364 432.43 899.034C429.687 899.043 426.943 899.034 424.199 899.008C423.803 883.297 424.268 867.537 423.961 851.812L431.596 851.727C431.607 854.088 431.715 856.455 431.781 858.816C434.814 855.291 437.017 852.667 441.557 851.072Z"/><path fill="#4C555F" d="M844.305 851.734L852.521 851.625L852.53 899.02L844.328 899.079L844.305 851.734Z"/><path fill="#4C555F" d="M561.019 851.754L562.459 851.716C563.805 853.252 563.121 894.391 563.124 899.02L556.875 899.095C555.822 899.056 555.94 899.228 555.083 898.453C554.138 883.058 554.975 867.241 554.922 851.788L561.019 851.754Z"/><path fill="#4C555F" d="M453.561 867.991C462.055 867.797 470.583 867.947 479.081 867.941L479.052 875.947L453.566 875.942L453.561 867.991Z"/><path fill="#4C555F" d="M843.613 833.006L853.004 832.997L853.007 843.125L843.563 843.168L843.613 833.006Z"/><path fill="#4C555F" d="M554.477 833.017L563.19 833.018L563.212 843.159L554.512 843.156L554.477 833.017Z"/></svg>